<?xml version="1.0" standalone="no"?>
<!DOCTYPE svg PUBLIC "-//W3C//DTD SVG 20010904//EN"
 "http://www.w3.org/TR/2001/REC-SVG-20010904/DTD/svg10.dtd">
<svg version="1.0" xmlns="http://www.w3.org/2000/svg"
 width="16.000000pt" height="16.000000pt" viewBox="0 0 16.000000 16.000000"
 preserveAspectRatio="xMidYMid meet">
<metadata>
Created by potrace 1.16, written by Peter Selinger 2001-2019
</metadata>
<g transform="translate(0.000000,16.000000) scale(0.100000,-0.100000)"
fill="#000000" stroke="none">
<path d="M50 140 c0 -5 -9 -10 -19 -10 -12 0 -21 -9 -25 -25 -10 -38 3 -75 25
-75 10 0 19 -4 19 -10 0 -14 28 -12 32 2 4 10 10 10 33 0 32 -15 34 -14 37 19
2 19 -1 23 -17 21 -17 -2 -17 -1 -5 8 13 9 13 11 0 20 -12 9 -12 10 5 8 11 -2
20 2 19 10 -3 42 -4 44 -21 37 -32 -12 -53 -14 -53 -4 0 5 -7 9 -15 9 -8 0
-15 -4 -15 -10z"/>
</g>
</svg>
