<svg id="Capa_1" data-name="Capa 1" xmlns="http://www.w3.org/2000/svg" viewBox="0 0 366.59 297.47"><path d="M465.3,481.93a18,18,0,0,0-20.55,11.71c-.85,2.31-2,2.57-4,2.55-9.23-.06-18.46-.1-27.68,0a7.35,7.35,0,0,1-5.85-2.41Q368.51,455,329.71,416.27c-3.6-3.59-4.55-3.58-8.35-.14q-22.86,20.73-53.43,16.43c-33.91-4.78-58.89-38.29-53.24-72,4.16-24.88,18.12-42.49,42-50.88,23.69-8.32,45.38-3.45,64.32,13.11,4.45,3.89,5,3.93,9.15-.25q38.63-38.61,77.21-77.27a6.58,6.58,0,0,1,5.18-2.22c9.35.11,18.7.13,28.05,0,2.33,0,3.38.56,4.24,2.83a18,18,0,0,0,21.8,11.09,18.28,18.28,0,0,0,13.43-19.17c-.53-8.32-7-15.16-15.67-16.56a17.87,17.87,0,0,0-19.58,11.56c-.83,2.2-1.79,2.94-4.2,2.9-10.09-.17-20.2,0-30.3-.12a8.27,8.27,0,0,0-6.56,2.73c-7.73,7.94-15.59,15.76-23.37,23.6-3.25-2.8-6.21-5.48-9.32-8-8.24-6.63-17.75-6.48-25.91.34q-7.45,6.24-14.85,12.55c-3.43,2.9-7.22,3.84-11.45,2.06s-6-5.27-6.4-9.71c-.51-6.21-1-12.42-1.66-18.62-1.11-10.78-7.5-17.67-17.93-18.78a131.08,131.08,0,0,0-32.46.34c-8.59,1.23-14.92,7.25-16.13,15.77-1,7.15-1.53,14.38-2,21.58-.33,4.52-2.17,7.93-6.31,9.78s-8,.9-11.44-2q-7.14-6-14.39-11.94c-9.21-7.52-18.31-7.45-27.36.12a154.44,154.44,0,0,0-20.22,20.45c-7,8.5-7,18.11,0,26.5q6.12,7.31,12.3,14.57a11.36,11.36,0,0,1,3.05,6.27c.63,6.46-3.35,11-10.6,11.81-6.44.7-12.9,1.17-19.36,1.75a19.49,19.49,0,0,0-17.95,17.53,158,158,0,0,0,0,31.36c1,9.76,7.87,16.77,17.64,17.78q10,1.05,20.1,1.8c4.66.35,8.12,2.34,9.88,6.73s.25,8.22-2.71,11.68c-4,4.74-8,9.55-12,14.37-6.69,8.16-6.7,17.81,0,25.92A153.29,153.29,0,0,0,184.07,485c8.41,6.88,17.8,7,26.19.13,5.21-4.27,10.31-8.66,15.47-13a10,10,0,0,1,10.81-1.82,9.88,9.88,0,0,1,6.43,8.86q.94,10.05,2,20.09c1.06,10.3,7.33,17.07,17.57,18.2a125.73,125.73,0,0,0,32.83-.33,19,19,0,0,0,16.31-17.39c.55-6.33,1.12-12.66,1.55-19,.33-4.81,1.87-8.8,6.62-10.79,4.59-1.94,8.44-.41,12,2.65q7.25,6.21,14.67,12.2c7.86,6.35,17.49,6.3,25.35-.09a74.2,74.2,0,0,0,6.45-5.68c1.49-1.54,2.31-1.37,3.75.1,7,7.14,14.16,14.07,21.08,21.24a9.7,9.7,0,0,0,7.82,3.33c9.85-.21,19.71,0,29.56-.14,2.27,0,3.39.46,4.25,2.79a17.87,17.87,0,0,0,20.6,11.51,18.16,18.16,0,0,0,14.71-17.77A18.36,18.36,0,0,0,465.3,481.93Zm-3.58-253.52a11,11,0,0,1,10.88,11,10.78,10.78,0,0,1-11.09,10.67,10.89,10.89,0,0,1-10.57-10.88A11.11,11.11,0,0,1,461.72,228.41ZM372.57,474.3c-11.37,10.25-14.68,10.36-26.38.54-3.63-3-7.21-6.15-11-9-11.49-8.85-26.74-2.95-29,11.38-1.08,6.88-1.38,13.88-2,20.83s-4.24,11.05-11.13,11.91c-5.07.62-10.2.71-14.82,1-5-.26-9.46-.41-13.93-.76-7.08-.57-11.18-4.49-12-11.49-.76-6.81-1.32-13.65-2-20.46s-4.32-11.92-10.63-14.67a16.76,16.76,0,0,0-18,2.2c-5.49,4.3-10.69,9-16.08,13.41-5.74,4.72-11.19,4.67-16.89,0a142,142,0,0,1-19.88-19.72q-7-8.44-.1-16.9,5.91-7.24,11.94-14.39c4.79-5.69,6.51-12.06,3.66-19.09s-8.27-10.64-15.8-11.26c-6.83-.57-13.66-1.13-20.47-1.91-6.13-.7-10.12-4.91-10.75-11.05a143.18,143.18,0,0,1-.07-29.49c.65-6.31,5-10.58,11.5-11.2,7.07-.68,14.18-1.1,21.19-2.15,14-2.09,20-17.66,11.31-28.82-4.06-5.2-8.48-10.13-12.73-15.19-5.19-6.18-5.14-11.52,0-17.76a141,141,0,0,1,19.5-19.58c5.55-4.58,11-4.64,16.6-.13,5.05,4.07,10,8.27,15,12.39,5.77,4.77,12.2,6.17,19.15,3.13s10.32-8.64,10.84-16.13q.66-9.33,1.56-18.63c.7-7.28,4.56-11.3,11.89-12.09a137.45,137.45,0,0,1,28.75-.07c6.85.7,10.77,5,11.48,12.1q.9,9.1,1.63,18.24c.6,7.43,3.83,13.17,10.81,16.17s13.62,1.68,19.47-3.28q7.14-6,14.3-12c5.9-4.94,11.31-5.07,17.16-.29,2.69,2.2,6.92,4.39,7.29,7s-4.09,5.07-6.51,7.5c-13.27,13.36-26.64,26.62-39.89,40-1.6,1.62-2.49,1.8-4.4.28-21.56-17.17-45.66-21.4-71.22-11.45-25.72,10-40.73,29.67-44.8,57-4.27,28.65,10.47,57.22,36.18,71.54,25.19,14,57,11.32,79.12-7,2.58-2.13,3.71-1.75,5.82.4q22.08,22.35,44.44,44.44C374.67,471.69,374.48,472.58,372.57,474.3Zm89.36,36.54a11.14,11.14,0,0,1-11-10.95,10.83,10.83,0,0,1,11.11-10.68A10.7,10.7,0,0,1,472.6,500,11,11,0,0,1,461.93,510.84Z" transform="translate(-129.15 -220.9)" fill="#0a0a0a"/><path d="M481.09,286.53c-9.24-1.69-17.6,2.9-20.83,11.75-.75,2-1.65,2.53-3.67,2.52-14.71-.08-29.42,0-44.14-.1a8,8,0,0,0-6.24,2.59c-12,12.13-24.15,24.15-36.16,36.3a7.43,7.43,0,0,1-5.83,2.46c-17.45-.11-34.91-.06-52.36-.06H259.12a18.49,18.49,0,0,0-3,.07,3.55,3.55,0,0,0-3.27,3.88,3.48,3.48,0,0,0,3.29,3.47,22.81,22.81,0,0,0,2.62.06q54,0,108.09.06a8.48,8.48,0,0,0,6.56-2.74c12.1-12.23,24.32-24.34,36.44-36.55a6.22,6.22,0,0,1,4.87-2.05q21,.13,41.89,0c2,0,2.91.5,3.66,2.52a18.16,18.16,0,0,0,20.92,11.7,18.32,18.32,0,0,0-.12-35.88Zm-3.63,28.71a10.85,10.85,0,0,1-10.87-10.94,10.84,10.84,0,1,1,10.87,10.94Z" transform="translate(-129.15 -220.9)" fill="#0a0a0a"/><path d="M481.09,416.81c-9-1.66-17.53,2.9-20.67,11.49-.88,2.41-2.05,2.76-4.28,2.75q-20.37-.15-40.76,0a7.4,7.4,0,0,1-5.87-2.38c-11.73-11.89-23.64-23.61-35.35-35.53a10.36,10.36,0,0,0-8.15-3.45c-17.71.16-35.41.07-53.11.07H259.41c-1,0-2,0-3,0a3.7,3.7,0,0,0-.17,7.39,28.91,28.91,0,0,0,3.36.06q52.36,0,104.73-.05a7,7,0,0,1,5.52,2.27c12,12.15,24.15,24.16,36.16,36.3a8.36,8.36,0,0,0,6.55,2.77c14.46-.12,28.92,0,43.38-.11,2.42,0,3.6.51,4.52,3,3.19,8.56,11.67,13,20.74,11.29a18.38,18.38,0,0,0,14.53-18C495.72,426.13,489.34,418.34,481.09,416.81Zm-3.83,28.86a11.05,11.05,0,0,1-10.67-10.85,10.84,10.84,0,0,1,21.67-.06A11.07,11.07,0,0,1,477.26,445.67Z" transform="translate(-129.15 -220.9)" fill="#0a0a0a"/><path d="M442.31,351.71c-9-1.79-17.76,2.67-20.81,11.16-1,2.84-2.47,3.05-4.88,3-20.57-.06-41.14,0-61.71,0h-61.7a15.54,15.54,0,0,0-3.35.13,3.69,3.69,0,0,0,0,7.2,16.4,16.4,0,0,0,3.72.15q61.71,0,123.41-.06c2.47,0,3.58.6,4.5,3,3.18,8.47,11.87,13,20.83,11.19,8.19-1.63,14.56-9.59,14.46-18.08S450.35,353.31,442.31,351.71Zm-3.89,28.7a10.79,10.79,0,0,1-.06-21.57,10.79,10.79,0,1,1,.06,21.57Z" transform="translate(-129.15 -220.9)" fill="#0a0a0a"/></svg>