<?xml version="1.0" standalone="no"?>
<!DOCTYPE svg PUBLIC "-//W3C//DTD SVG 20010904//EN"
 "http://www.w3.org/TR/2001/REC-SVG-20010904/DTD/svg10.dtd">
<svg version="1.0" xmlns="http://www.w3.org/2000/svg"
 width="512.000000pt" height="512.000000pt" viewBox="0 0 512.000000 512.000000"
 preserveAspectRatio="xMidYMid meet">
<metadata>
Created by potrace 1.16, written by Peter Selinger 2001-2019
</metadata>
<g transform="translate(0.000000,512.000000) scale(0.100000,-0.100000)"
fill="#000000" stroke="none">
<path d="M1885 4540 c-103 -12 -180 -63 -220 -146 -17 -37 -43 -222 -45 -319
-1 -92 -40 -156 -106 -174 -56 -15 -92 3 -224 114 -69 58 -145 115 -170 127
-59 30 -156 30 -220 1 -90 -41 -344 -295 -390 -389 -30 -60 -35 -130 -17 -195
13 -44 39 -82 136 -197 68 -81 122 -156 126 -173 9 -40 -11 -94 -46 -123 -38
-32 -38 -32 -233 -51 -191 -19 -233 -32 -292 -97 -67 -75 -69 -84 -69 -363 0
-232 1 -253 21 -295 25 -55 72 -104 127 -132 33 -16 78 -24 212 -35 194 -15
242 -31 269 -88 21 -43 20 -94 -1 -125 -10 -14 -63 -81 -120 -149 -117 -141
-139 -188 -130 -281 2 -31 14 -74 25 -96 49 -94 301 -342 392 -385 62 -30 161
-30 221 0 24 11 100 69 169 127 69 58 135 110 148 115 37 14 74 11 109 -11 57
-34 65 -57 83 -248 11 -105 24 -193 34 -217 23 -55 79 -109 140 -137 48 -21
63 -23 281 -23 259 0 299 7 372 70 64 55 82 110 99 307 18 207 34 245 112 268
54 15 93 -6 225 -114 156 -131 191 -149 277 -150 82 -1 133 22 220 96 l65 56
176 -174 175 -174 247 0 246 0 19 -43 c21 -48 70 -100 116 -124 17 -9 63 -18
101 -21 62 -3 76 -1 125 25 184 97 182 348 -5 446 -56 30 -163 29 -221 -1 -50
-25 -109 -92 -124 -138 l-12 -34 -221 0 -222 0 -555 555 c-306 305 -563 555
-572 555 -9 0 -44 -22 -77 -50 -126 -105 -256 -171 -396 -201 -94 -20 -275
-15 -370 10 -553 147 -813 767 -525 1252 110 185 307 332 525 390 95 25 276
30 370 10 140 -30 270 -96 396 -201 33 -28 68 -50 77 -50 9 0 266 250 572 555
l555 555 222 0 221 0 12 -34 c15 -46 74 -113 124 -138 58 -30 165 -31 221 -1
108 57 159 163 135 279 -47 226 -364 266 -466 58 l-26 -54 -246 0 -246 0 -175
-174 -176 -174 -70 60 c-89 77 -142 101 -220 101 -86 0 -131 -24 -284 -151
-73 -62 -144 -115 -157 -118 -32 -8 -84 2 -112 22 -41 28 -52 69 -68 237 -18
192 -32 242 -84 296 -52 54 -87 70 -173 81 -81 11 -321 11 -412 0z m458 -124
c67 -33 83 -76 102 -271 12 -134 21 -181 39 -222 41 -89 137 -141 242 -130 71
7 95 22 244 147 192 161 219 163 375 26 l40 -35 -326 -326 -326 -327 -67 52
c-166 125 -352 184 -576 183 -265 -1 -496 -98 -676 -285 -146 -151 -224 -304
-259 -507 -34 -193 -1 -421 85 -591 72 -142 226 -309 356 -386 166 -98 314
-138 504 -137 221 1 402 60 566 184 l67 51 324 -324 c177 -177 323 -326 323
-329 0 -14 -127 -110 -159 -120 -57 -19 -99 2 -238 117 -157 131 -185 145
-269 145 -80 0 -140 -26 -188 -82 -44 -52 -54 -91 -70 -285 -9 -104 -19 -172
-30 -192 -37 -72 -109 -92 -331 -91 -161 1 -228 10 -262 35 -58 44 -64 60 -83
251 -19 189 -33 238 -78 287 -38 41 -118 76 -173 76 -80 0 -127 -24 -259 -136
-69 -58 -138 -113 -155 -121 -38 -20 -93 -20 -130 0 -89 47 -327 294 -347 359
-19 65 -5 95 113 239 130 157 140 174 146 248 7 75 -11 134 -54 182 -62 69
-95 79 -299 99 -283 26 -294 39 -294 363 0 194 8 237 54 283 40 40 75 49 256
64 167 14 221 32 274 91 33 36 66 118 66 164 0 67 -31 122 -144 257 -173 207
-174 227 -24 397 92 104 228 220 270 232 62 16 103 -3 239 -117 151 -127 184
-144 270 -144 75 0 129 22 176 71 51 54 63 96 79 282 26 286 42 298 394 293
145 -2 181 -5 213 -20z m2293 -1 c14 -9 35 -37 45 -61 26 -57 13 -109 -36
-153 -46 -40 -93 -48 -142 -25 -140 69 -89 275 64 261 24 -3 54 -12 69 -22z
m-39 -3466 c43 -16 82 -59 94 -101 8 -31 6 -46 -10 -82 -25 -58 -61 -81 -126
-81 -147 0 -187 191 -55 257 41 21 58 22 97 7z"/>
<path d="M4679 3666 c-58 -21 -107 -64 -135 -122 l-26 -53 -339 -3 -339 -3
-278 -277 -277 -278 -751 0 c-570 0 -753 -3 -762 -12 -20 -20 -14 -65 10 -82
20 -14 111 -16 787 -16 l765 0 281 280 280 280 312 0 311 0 12 -36 c16 -47 73
-110 124 -137 57 -30 165 -30 221 0 90 48 135 123 135 226 0 76 -34 154 -84
192 -68 52 -170 69 -247 41z m147 -112 c77 -37 100 -144 44 -208 -61 -70 -148
-70 -209 -1 -25 29 -31 45 -31 82 0 108 100 172 196 127z"/>
<path d="M4157 2796 c-61 -22 -104 -62 -134 -125 l-28 -60 -883 0 -882 -1 -12
-25 c-8 -19 -8 -31 0 -50 l12 -25 882 0 883 0 19 -47 c69 -168 295 -205 416
-67 45 52 60 93 60 164 0 71 -15 112 -61 165 -66 74 -179 104 -272 71z m141
-110 c57 -30 77 -63 77 -128 0 -56 -2 -62 -37 -93 -43 -39 -74 -50 -122 -41
-124 23 -148 203 -34 259 41 20 81 21 116 3z"/>
<path d="M1782 2284 c-24 -17 -30 -62 -10 -82 9 -9 192 -12 762 -12 l751 0
277 -277 278 -278 339 -3 339 -3 26 -53 c42 -85 121 -135 217 -136 143 -1 249
104 249 247 0 103 -45 178 -135 226 -56 30 -164 30 -221 0 -51 -27 -108 -90
-124 -137 l-12 -36 -311 0 -312 0 -280 280 -281 280 -765 0 c-676 0 -767 -2
-787 -16z m3031 -468 c18 -7 45 -28 60 -45 52 -62 27 -170 -47 -205 -96 -45
-196 20 -196 127 0 52 33 101 85 123 39 17 58 17 98 0z"/>
</g>
</svg>
