<svg id="Capa_1" data-name="Capa 1" xmlns="http://www.w3.org/2000/svg" viewBox="0 0 384 384"><path d="M83,411.11q0-94.47-.07-188.94c0-2.56.51-3.06,3.07-3.06q188.93.12,377.87,0c2.56,0,3.06.5,3.06,3.06q-.12,188.94,0,377.87c0,2.56-.5,3.07-3.06,3.07Q274.91,603,86,603.11c-2.56,0-3.07-.5-3.07-3.07Q83,505.57,83,411.11Z" transform="translate(-82.91 -219.11)" fill="#fff"/><path d="M340.37,488.59c3.5-.07,5.93-1.73,8.52-2.81,19.25-8,38.36-16.47,57.74-24.19,21.53-8.57,44,2.74,50.79,24.82.88,2.84-1,2.92-2.34,3.63q-34.57,18.39-69.19,36.68c-25,13.26-50.34,26.06-75.06,39.92-18.69,10.47-37.33,11.89-57.39,4.81-19.68-7-39.69-12.93-59.57-19.32-5.48-1.76-11.14-.72-16.7-.76-2.95,0-3.74-.78-3.68-3.71.18-8.18.07-7.67,8.12-8.13,13.31-.76,25,4.74,37.2,8.45,14.38,4.39,28.66,9.1,42.92,13.86s27.59,3.16,40.7-3.88c27.7-14.89,55.52-29.55,83.3-44.3,18.22-9.68,36.42-19.4,54.72-28.94,2.76-1.44,2.54-2.44.88-4.55-7.33-9.26-19.78-12.46-31.37-7.61-21.2,8.87-42.34,17.89-63.5,26.85-6.52,2.77-13,5.59-19.54,8.33a23.31,23.31,0,0,1-9.09,1.82c-19.2,0-38.4,0-57.6.05-2.26,0-2.92-.5-2.92-2.86,0-8.72-.1-8.72,8.64-8.72,17,0,33.92,0,50.87,0,6.64,0,11.32-3.56,12.4-9.13,1.43-7.42-3.85-13.54-12-13.59-14.33-.08-28.67-.13-43,0a37.07,37.07,0,0,1-16.57-3.64c-11-5.19-22.19-10-33.23-15.17a47.83,47.83,0,0,0-21.67-4.67c-8.72.22-17.45,0-26.18.11-2.51.05-3.05-.75-3-3.12.05-8.59,0-8.59,8.45-8.59,6.74,0,13.47.14,20.2,0a59.75,59.75,0,0,1,27.46,5.93c11.35,5.35,22.86,10.35,34.25,15.62a22.39,22.39,0,0,0,9.73,2.08q22.06-.12,44.14,0c12.07.08,21.13,7.93,23.07,19.77A6.84,6.84,0,0,1,340.37,488.59Z" transform="translate(-82.91 -219.11)" fill="#fff"/><path d="M280,247c3.2-1,4.39.9,5.45,3.45,5.38,13,10.91,25.86,16.31,38.82.86,2.07,1.76,3.25,4.4,3.54,13.86,1.49,27.68,3.34,41.52,5a7.08,7.08,0,0,1,6.5,7.28c-.07,1.6-1.49,2.22-2.46,3.07q-16,14-32.19,27.91a4.73,4.73,0,0,0-1.82,5.38c2.9,14,5.44,28.09,8.34,42.09.59,2.84-.65,4.07-2.61,5.39s-3.27,2.43-5.86.8c-12.13-7.57-24.48-14.78-36.63-22.31-2.36-1.46-4-1.35-6.34,0-12.22,6.92-24.64,13.48-36.76,20.58-3.26,1.91-4.79.14-7.1-1.16-2.46-1.38-2.14-3.19-1.64-5.32,3.25-13.92,6.4-27.87,9.79-41.75a4.5,4.5,0,0,0-1.53-5.14c-10.63-9.79-21.05-19.82-31.82-29.46-2.88-2.58-.84-4.59-.51-6.92s2.08-2.61,4.07-2.77c14.65-1.19,29.28-2.52,43.94-3.63,2.09-.16,2.72-1.3,3.41-2.79,6-12.84,12-25.63,17.85-38.54C275.51,247.76,276.77,246,280,247Z" transform="translate(-82.91 -219.11)" fill="#fff"/><path d="M343.45,390.64c8.21-4.55,16-8.74,23.61-13.15,2.87-1.65,5.22-1.73,8.12.11,7.35,4.64,14.91,9,23.1,13.85-1-5.37-1.82-10.13-2.7-14.89-.72-3.91-1.22-7.9-2.32-11.71-1-3.46.2-5.57,2.74-7.7,6.67-5.59,13.18-11.36,20.31-17.55-8.18-1-15.65-2.24-23.16-2.84-5.58-.45-10.07-.28-11.57-8-1.46-7.49-5.76-14.43-9.11-22.33-3.94,8.45-7.65,16.18-11.13,24-1.53,3.44-3.66,5.53-7.6,5.28-.37,0-.75.11-1.12.07-2.9-.31-6.58,2.07-8.43-.05-1.54-1.77-.71-5.5-1.21-8.31-.36-2.07.42-2.91,2.3-2.65,5,.67,7.05-2,8.86-6.3,4-9.48,8.66-18.72,13.08-28,.94-2,1.64-4,4.73-3.8s5.05.78,6.31,3.87c4.22,10.35,8.77,20.57,13,30.92,1.11,2.71,2.47,3.87,5.58,4.18,11,1.09,22,2.63,33,4,1.85.23,3.92-.24,4.61,2.61s1.22,5.63-1.23,7.95c-1.53,1.45-3.15,2.82-4.76,4.21-6.78,5.88-13.46,11.88-20.4,17.56-2.48,2-3,3.95-2.39,7,2.37,11.32,4.36,22.73,6.75,34.05.86,4.05-2.9,4-4.42,5.9-1.32,1.67-2.57.43-3.83-.32-10.23-6.16-20.5-12.26-30.68-18.5a4.29,4.29,0,0,0-5.06-.12c-10.38,5.89-20.87,11.6-31.28,17.43-1.66.92-3.12,1.64-4.52-.24s-4.85-2.1-3.73-6.24c3.14-11.65,5.61-23.47,8.39-35.21a3.49,3.49,0,0,0-1.3-3.9c-2.46-2.09-4.69-4.47-7.15-6.57-1.53-1.29-1.33-2.12-.07-3.52,6.12-6.79,6.07-6.83,12.81-.57a32.64,32.64,0,0,0,4.12,3.79c4.54,3,4.79,6.79,3.43,11.65C347,374.38,345.4,382.29,343.45,390.64Z" transform="translate(-82.91 -219.11)" fill="#fff"/><path d="M186.54,306.74c-3.79,8.15-7.55,16-11.08,23.93-1.47,3.3-3.53,4.92-7.3,5.12-8.57.46-17.12,1.38-26.55,2.19l9.87,9.23c3.2,3,6.23,6.15,9.65,8.84,3.05,2.39,3.37,5.16,2.56,8.55-1.91,8-3.75,16-5.61,24-.11.47-.13,1-.26,2,8.11-4.5,15.91-8.72,23.59-13.14a6.88,6.88,0,0,1,7.85.05c7.55,4.7,15.21,9.24,23.33,14.15-1.76-9.29-3.29-18-5.08-26.61-.65-3.13-.2-5.49,2.42-7.53,2.95-2.28,5.75-4.78,8.51-7.3,1.2-1.08,1.86-1,3,.18C228,357,228.08,357,221,363.27a3.37,3.37,0,0,0-1.32,3.78c2.35,11.45,4.26,23,6.89,34.39,1,4.22-1.61,5.25-3.87,7.28-2.45,2.19-3.81.11-5.45-.86-9.93-5.92-19.87-11.84-29.72-17.89a4.05,4.05,0,0,0-4.73,0c-10.29,5.79-20.78,11.25-30.91,17.31-3.69,2.2-5-.69-7.34-1.84s-1.68-2.81-1.22-4.73c2.8-11.61,5.43-23.25,8.23-34.85a3.43,3.43,0,0,0-1.16-3.9c-9.24-8.17-17.75-17.13-27.39-24.85a2,2,0,0,1-.92-2.49c.52-1.66,1-3.33,1.43-5,.35-1.43,1.12-1.87,2.62-2,12.17-.93,24.33-2,36.5-3,1.86-.15,3.19-.51,4.07-2.47,5-11.12,10.12-22.14,15.07-33.26,1.37-3.06,4-1.57,6.1-2.22,1.8-.58,2.95.19,3.72,2,4.54,10.76,9.3,21.42,13.69,32.24,1.29,3.16,2.85,4.57,6.41,4.72,6.62.29,6.61.56,5.93,6.72-.62,5.6-.62,5.6-6.29,4.92-2.47-.3-5-1-7.41-.83-4.11.32-5.5-2.14-6.79-5.28-3.23-7.81-6.6-15.55-9.92-23.31C187.08,307.62,186.93,307.42,186.54,306.74Z" transform="translate(-82.91 -219.11)" fill="#fff"/><path d="M161,498.76q0,29.73,0,59.47c0,9.35-4.34,13.7-13.68,13.7-17.58,0-35.16,0-52.74.06-2.6,0-3.67-.33-3.6-3.36.2-8.24,0-8.24,8.32-8.24,15.71,0,31.42,0,47.13.05,2.35,0,3.15-.47,3.14-3q-.13-58.72,0-117.45c0-2.6-.9-3-3.2-3-17.21.08-34.41,0-51.62.1-2.71,0-3.86-.37-3.77-3.53.24-8,.06-8,8.2-8,15.58,0,31.18.36,46.75-.12,10.39-.33,15.43,5.23,15.21,15C160.69,459.85,161,479.31,161,498.76Z" transform="translate(-82.91 -219.11)" fill="#fff"/><path d="M118,542.21a8.05,8.05,0,1,1,16.1.24,8.05,8.05,0,1,1-16.1-.24Z" transform="translate(-82.91 -219.11)" fill="#fff"/><path d="M243.48,371.47c2.7-11.51,5-22.4,7.89-33.16,1.06-4,.4-6.47-2.77-9.21-7.81-6.77-15.24-14-22.84-21-.62-.57-1.35-1-2.86-2.13,12.29-1.07,23.3-2.21,34.34-2.92,4-.25,6.33-1.46,8-5.42,4.37-10.28,9.34-20.31,14.32-30.95,2.17,5.05,4.17,9.7,6.16,14.36,2.49,5.82,5.24,11.56,7.33,17.53,1.33,3.81,3.66,4.84,7.33,5.22,11,1.12,22,2.59,33,3.92.31,1.6-1.06,1.94-1.79,2.58q-12.39,10.83-24.87,21.54c-1.55,1.33-2.18,2.43-1.71,4.69,2.46,11.8,4.63,23.66,7,36.06-9.2-5.53-18.19-10.51-26.69-16.22-5-3.37-8.89-3.83-14.22-.41C262.33,361.57,253,366.21,243.48,371.47Z" transform="translate(-82.91 -219.11)" fill="#fff"/></svg>